<?xml version="1.0" encoding="UTF-8" standalone="no"?>
<!-- Created with Inkscape (http://www.inkscape.org/) -->

<svg
   width="128"
   height="32"
   viewBox="0 0 33.866666 8.4666669"
   version="1.1"
   id="svg146"
   inkscape:version="1.1 (1:1.1+202105261517+ce6663b3b7)"
   sodipodi:docname="vertical-logo.svg"
   inkscape:export-filename="/home/kk42id/Documents/SKRIPSI/logo-rekomendasiin.com/vertical-logo.png"
   inkscape:export-xdpi="96"
   inkscape:export-ydpi="96"
   xmlns:inkscape="http://www.inkscape.org/namespaces/inkscape"
   xmlns:sodipodi="http://sodipodi.sourceforge.net/DTD/sodipodi-0.dtd"
   xmlns:xlink="http://www.w3.org/1999/xlink"
   xmlns="http://www.w3.org/2000/svg"
   xmlns:svg="http://www.w3.org/2000/svg">
  <sodipodi:namedview
     id="namedview148"
     pagecolor="#ffffff"
     bordercolor="#666666"
     borderopacity="1.0"
     inkscape:pageshadow="2"
     inkscape:pageopacity="0.0"
     inkscape:pagecheckerboard="0"
     inkscape:document-units="mm"
     showgrid="false"
     units="px"
     inkscape:zoom="3.5634119"
     inkscape:cx="-15.294331"
     inkscape:cy="42.094488"
     inkscape:window-width="1920"
     inkscape:window-height="948"
     inkscape:window-x="0"
     inkscape:window-y="28"
     inkscape:window-maximized="1"
     inkscape:current-layer="layer1"
     height="32px" />
  <defs
     id="defs143">
    <radialGradient
       inkscape:collect="always"
       xlink:href="#linearGradient1094"
       id="radialGradient996-6"
       cx="52.503716"
       cy="75.937119"
       fx="52.503716"
       fy="75.937119"
       r="5.172317"
       gradientTransform="matrix(1.5358428,-0.39642507,0.57546721,2.2294935,-27.249132,-41.183205)"
       gradientUnits="userSpaceOnUse" />
    <linearGradient
       inkscape:collect="always"
       id="linearGradient1094">
      <stop
         style="stop-color:#faff00;stop-opacity:1"
         offset="0"
         id="stop1090" />
      <stop
         style="stop-color:#ff6e00;stop-opacity:1"
         offset="1"
         id="stop1092" />
    </linearGradient>
  </defs>
  <g
     inkscape:label="Layer 1"
     inkscape:groupmode="layer"
     id="layer1">
    <rect
       style="fill:#ffffff;fill-rule:evenodd;stroke-width:0.394539"
       id="rect163"
       width="33.866665"
       height="8.4666662"
       x="8.9009603e-07"
       y="2.2252401e-07" />
    <g
       id="g2147"
       transform="matrix(0.23031076,0,0,0.23031076,-13.425774,-19.750022)"
       inkscape:export-filename="/home/kk42id/Documents/Rekomendasiin Logo/icon/RekomendasiinGrey.png"
       inkscape:export-xdpi="300"
       inkscape:export-ydpi="300">
      <g
         aria-label="Rek  mendasiin.com"
         transform="scale(1.0102134,0.98988986)"
         id="text1550-0-6-3"
         style="font-size:18.2493px;line-height:1.25;fill:#860000;stroke-width:0.109197">
        <path
           d="m 68.804482,102.80127 q 0,-0.54356 0.302967,-0.54356 0.178216,0 0.23168,0.0535 0.05347,0.0535 0.196038,0.16931 0.151483,0.10693 0.837614,0.10693 0.695042,0 1.434637,-0.39208 0.748507,-0.39207 1.292065,-1.05147 1.140581,-1.398993 1.140581,-3.323724 0,-1.497013 -0.730685,-2.530664 -0.721774,-1.042563 -1.897998,-1.042563 -0.935633,0 -1.425727,0.142573 l -3.368279,16.458228 q -0.09802,0.31188 -0.507915,0.31188 -0.409896,0 -0.409896,-0.29406 0,-0.0802 0.02673,-0.17821 0.02673,-0.10693 0.10693,-0.50792 0.196037,-1.00692 1.327708,-6.42468 1.140581,-5.426669 1.933641,-8.946431 -0.267323,0.169305 -0.641577,0.507915 -0.01782,0.196037 -0.187126,0.33861 -0.169305,0.142573 -0.392075,0.142573 l -0.22277,-0.05347 q -0.249502,-0.11584 -0.249502,-0.374253 0,-0.499005 0.579201,-0.917812 0.588113,-0.427718 1.46137,-0.650488 0.320789,-0.766328 0.588112,-0.766328 0.213859,0 0.320789,0.605934 0.383164,-0.05347 0.730685,-0.05347 1.91582,0 2.896007,1.354441 0.810882,1.122759 0.810882,2.967293 0,2.370266 -1.398994,3.956396 -1.390084,1.57721 -3.894016,1.57721 0,3.04749 1.033652,5.94349 1.202956,3.41284 3.653424,5.0346 1.871266,1.24751 4.410842,1.24751 2.539575,0 4.642522,-1.71087 0.632666,-0.52574 1.318797,-1.14058 0.07129,-0.0713 0.23168,-0.0713 0.3297,0 0.3297,0.3297 0,0.18713 -0.142573,0.36534 -1.35444,1.399 -2.646505,2.09404 -1.764337,0.95345 -3.992034,0.95345 -2.218787,0 -4.312823,-1.28315 -3.778176,-2.33463 -4.981132,-7.85932 -0.436629,-2.00493 -0.436629,-4.5445 z"
           style="font-family:'Bad Script';-inkscape-font-specification:'Bad Script'"
           id="path271" />
        <path
           d="m 78.891497,109.62693 q 0.311878,0 0.311878,0.3297 0,0.38317 -0.935633,0.86435 -0.935633,0.48118 -1.559389,0.48118 -0.623755,0 -0.935633,-0.20495 -0.311878,-0.20494 -0.507915,-0.57029 -0.383164,-0.71286 -0.383164,-1.71978 0,-1.78216 0.534647,-3.35937 0.534648,-1.57721 1.425727,-2.61086 0.891079,-1.04256 1.924731,-1.04256 0.552469,0 0.864347,0.46336 0.320788,0.45445 0.320788,1.07821 0,1.16731 -0.614844,1.97819 -0.605934,0.81088 -1.497013,1.32771 -0.891079,0.51683 -2.049482,0.98019 l -0.03564,1.30988 q 0,1.53266 0.926722,1.53266 0.499004,0 1.042562,-0.28515 0.552469,-0.29405 0.793061,-0.4188 0.240591,-0.13367 0.374253,-0.13367 z m 0.22277,-6.25537 q 0,-0.71286 -0.597023,-0.71286 -0.534648,0 -1.256422,0.96236 -0.721774,0.96237 -1.194046,2.53958 -0.11584,0.38316 -0.133662,0.5792 0.356432,-0.19604 0.730685,-0.37426 0.374253,-0.17821 0.730685,-0.37425 0.819793,-0.45445 1.265332,-1.06038 0.454451,-0.61485 0.454451,-1.55939 z"
           style="font-family:'Bad Script';-inkscape-font-specification:'Bad Script'"
           id="path273" />
        <path
           d="m 87.383481,109.33288 q 0.472272,0 0.472272,0.59702 0,0.35643 -0.302967,0.70395 -0.597023,0.66831 -1.220779,0.66831 -1.051473,0 -1.862355,-0.66831 -0.801971,-0.66831 -1.309886,-1.60394 -0.507915,-0.93563 -0.623756,-1.58612 l -0.04455,0.0267 q -0.06238,0.46336 -0.392075,1.80889 -0.3297,1.33662 -0.383164,1.60395 -0.08911,0.46336 -0.427718,0.46336 -0.276235,0 -0.392075,-0.098 -0.11584,-0.098 -0.11584,-0.1604 v -0.0713 q 0,-0.51683 0.819792,-3.98313 0.828704,-3.46629 1.033652,-4.37519 1.024741,-4.393024 1.390084,-6.558347 0.365342,-2.174233 0.45445,-2.37027 0.09802,-0.196037 0.22277,-0.196037 0.588112,0 0.588112,0.605933 0,0.213859 -0.213859,1.220779 -0.204948,1.006919 -0.392075,1.897998 -0.178216,0.882169 -0.597023,2.806904 -0.418807,1.91582 -0.552469,2.53957 0.748507,-0.78415 1.479191,-0.78415 0.730685,0 0.998009,0.50792 0.276235,0.499 0.276235,1.06929 0,1.07821 -0.757418,1.88909 -0.757417,0.81088 -2.290073,1.7376 0.249502,1.37227 1.149492,2.39701 0.89999,1.02474 1.862355,1.02474 0.44554,0 0.659399,-0.41881 0.09802,-0.17822 0.187126,-0.43663 0.08911,-0.25841 0.285146,-0.25841 z m -2.575219,-6.67418 q -0.695041,0 -1.202957,0.62375 -0.499004,0.61485 -0.730684,1.88018 -0.04455,0.25841 -0.169305,0.8287 l -0.124752,0.64158 q 0.08911,-0.0713 0.3297,-0.21386 0.240591,-0.15148 0.801971,-0.53465 0.56138,-0.38316 1.104938,-1.00692 0.543558,-0.62375 0.543558,-1.41681 0,-0.80197 -0.552469,-0.80197 z"
           style="font-family:'Bad Script';-inkscape-font-specification:'Bad Script'"
           id="path275" />
        <path
           d="m 104.02884,111.12395 q 0.14257,-0.42772 0.2495,-1.04257 0.11584,-0.62375 0.29406,-1.14949 0.75741,-3.02076 1.24751,-6.40686 0.0267,-0.16039 0.0356,-0.30296 0.0178,-0.14258 0.26732,-0.42772 0.18713,-0.0713 0.27624,-0.0713 0.2495,0 0.3297,0.31188 v 0.14257 q -0.0356,1.30098 -0.40099,2.83363 l -0.45445,1.91582 q 0.19604,-0.40989 0.42772,-0.94454 0.98019,-2.26334 1.82671,-3.19897 0.84653,-0.94455 1.83562,-0.94455 0.54356,0 0.89108,0.44554 0.34752,0.43663 0.34752,1.02474 0,0.0891 -0.009,0.1604 -0.009,0.0624 -0.009,0.13366 0.9891,-1.20296 2.0584,-1.63959 0.32969,-0.14257 0.65939,-0.14257 0.33861,0 0.64158,0.32079 0.30297,0.31188 0.30297,0.84652 0,0.53465 -0.11584,1.1495 -0.11584,0.61484 -0.29406,1.2386 -0.1693,0.62375 -0.39207,1.26533 -0.21386,0.63267 -0.56138,1.76434 -0.34752,1.13167 -0.4099,1.7376 -0.0624,0.59702 -0.10693,0.71286 -0.0356,0.11584 -0.16039,0.26733 -0.11584,0.16039 -0.3297,0.16039 -0.41881,0 -0.41881,-0.89108 0,-0.56138 0.20495,-1.21187 0.20495,-0.65048 0.3297,-1.09602 0.13366,-0.44554 0.35643,-1.0693 0.22277,-0.62375 0.55247,-1.63958 0.3297,-1.01583 0.43663,-2.17424 0,-0.37425 -0.098,-0.43662 -0.0891,-0.0713 -0.3297,-0.0713 -0.24059,0 -0.73069,0.31188 -0.48118,0.31187 -0.98018,0.88216 -1.11385,1.30989 -1.67523,3.2168 -0.1604,0.57029 -0.30297,0.98019 -0.14257,0.40989 -0.38316,1.12276 -0.23168,0.71286 -0.37426,1.25642 -0.13366,0.53465 -0.24059,0.67722 -0.098,0.14257 -0.3297,0.14257 -0.4188,0 -0.45445,-0.45445 0.21386,-1.49701 0.64158,-2.6465 0.42772,-1.1495 0.69504,-1.82672 0.26733,-0.67722 0.51683,-1.52374 0.2495,-0.85544 0.2495,-1.47028 0,-0.61485 -0.38316,-0.61485 -1.05148,0 -2.76235,3.45739 -0.91781,1.84453 -1.11385,2.43265 -0.19604,0.58811 -0.30296,0.89999 -0.58812,1.84453 -1.11385,1.84453 -0.17822,0 -0.31188,-0.0802 -0.12475,-0.0713 -0.12475,-0.17821 z"
           style="font-family:'Bad Script';-inkscape-font-specification:'Bad Script'"
           id="path277" />
        <path
           d="m 120.46925,109.62693 q 0.31188,0 0.31188,0.3297 0,0.38317 -0.93564,0.86435 -0.93563,0.48118 -1.55939,0.48118 -0.62375,0 -0.93563,-0.20495 -0.31188,-0.20494 -0.50791,-0.57029 -0.38317,-0.71286 -0.38317,-1.71978 0,-1.78216 0.53465,-3.35937 0.53465,-1.57721 1.42573,-2.61086 0.89108,-1.04256 1.92473,-1.04256 0.55247,0 0.86434,0.46336 0.32079,0.45445 0.32079,1.07821 0,1.16731 -0.61484,1.97819 -0.60594,0.81088 -1.49702,1.32771 -0.89107,0.51683 -2.04948,0.98019 l -0.0356,1.30988 q 0,1.53266 0.92672,1.53266 0.49901,0 1.04256,-0.28515 0.55247,-0.29405 0.79306,-0.4188 0.2406,-0.13367 0.37426,-0.13367 z m 0.22277,-6.25537 q 0,-0.71286 -0.59703,-0.71286 -0.53464,0 -1.25642,0.96236 -0.72177,0.96237 -1.19404,2.53958 -0.11584,0.38316 -0.13366,0.5792 0.35643,-0.19604 0.73068,-0.37426 0.37425,-0.17821 0.73069,-0.37425 0.81979,-0.45445 1.26533,-1.06038 0.45445,-0.61485 0.45445,-1.55939 z"
           style="font-family:'Bad Script';-inkscape-font-specification:'Bad Script'"
           id="path279" />
        <path
           d="m 127.98996,103.90621 q 0,-0.88217 -0.48119,-0.88217 -0.64157,0 -2.45046,3.68015 -0.8198,1.66632 -1.14949,2.52176 -0.32079,0.84652 -0.48119,1.19404 -0.16039,0.34753 -0.32079,0.52574 -0.15148,0.17822 -0.34752,0.17822 -0.18712,0 -0.22277,-0.0891 -0.0356,-0.098 -0.0356,-0.33861 0,-0.2495 0.71286,-4.20589 0.72178,-3.96531 0.82871,-4.17025 0.11584,-0.20495 0.20495,-0.25842 0.0891,-0.0624 0.32078,-0.0624 0.23168,0 0.35644,0.17821 0.13366,0.17822 0.13366,0.32079 0,0.13366 -0.0357,0.26733 -0.0624,0.24059 -0.18712,0.59702 -0.42772,1.22078 -0.8198,3.45739 l -0.18712,1.0782 q 0.20495,-0.42772 0.46336,-1.02474 0.25841,-0.60593 0.76633,-1.72869 0.50791,-1.12276 1.13167,-2.00493 0.80197,-1.1584 1.49701,-1.1584 1.22078,0 1.22078,1.96928 0,0.7396 -0.21386,1.84453 -0.20495,1.10494 -0.46336,2.41483 -0.2495,1.30988 -0.27624,2.16532 l -0.10693,0.49009 q 0,0.19604 -0.0624,0.27624 -0.0535,0.0891 -0.34752,0.0891 -0.28515,0 -0.41881,-0.10693 -0.12475,-0.10693 -0.0802,-0.38317 l 0.89108,-5.32865 q 0.1604,-0.9891 0.1604,-1.50592 z"
           style="font-family:'Bad Script';-inkscape-font-specification:'Bad Script'"
           id="path281" />
        <path
           d="m 135.92947,102.72998 0.87326,-3.831638 q 0.0891,-0.409897 0.42772,-2.111858 0.34752,-1.710871 0.50791,-2.379181 l 0.0357,-0.22277 q 0,-0.23168 0.15148,-0.392074 0.16039,-0.169305 0.3297,-0.169305 0.39207,0 0.39207,0.418807 v 0.0802 q 0,0.436629 -0.63266,3.323725 -0.62376,2.887094 -0.81089,4.063314 -0.18712,1.17623 -0.71286,3.28809 -0.51682,2.11185 -0.65049,2.85145 -0.13366,0.73959 -0.25841,1.25642 -0.12475,0.50792 -0.12475,1.01583 0,0.50792 0.16039,1.02474 -0.0267,0.21386 -0.19603,0.35643 -0.16931,0.15149 -0.31188,0.15149 -0.23168,0 -0.40099,-0.54356 -0.1693,-0.55247 -0.1693,-0.91781 0,-0.37426 0.10693,-0.87326 -0.36534,1.10494 -0.94455,1.63958 -0.5792,0.52574 -1.52374,0.52574 -0.93563,0 -1.33662,-0.76633 -0.39207,-0.77524 -0.39207,-1.51483 0,-2.7267 1.03365,-4.61579 0.48118,-0.87326 0.84652,-1.29207 0.37426,-0.4188 0.95346,-0.80197 0.5792,-0.38316 1.42572,-0.38316 0.84653,0 1.22078,0.81979 z m -0.6594,2.86928 q 0.14258,-0.73069 0.17822,-0.92673 0.0446,-0.20494 0.0446,-0.65939 0,-0.46337 -0.26732,-0.89999 -0.26732,-0.43663 -0.75742,-0.43663 -0.87326,0 -1.60394,1.10494 -0.72177,1.09602 -1.1584,2.5663 -0.42772,1.46137 -0.42772,2.46829 0,1.00692 0.57029,1.43464 0.18713,0.14257 0.499,0.14257 0.63267,0 1.35444,-1.0782 0.72178,-1.07821 1.07821,-2.03166 0.35643,-0.96237 0.49009,-1.68414 z"
           style="font-family:'Bad Script';-inkscape-font-specification:'Bad Script'"
           id="path283" />
        <path
           d="m 139.2532,111.12395 q -1.04256,0 -1.04256,-1.30989 0,-1.30989 0.97127,-3.20788 0.98019,-1.90691 2.29899,-3.28809 1.31879,-1.39008 2.1475,-1.39008 0.83761,0 0.95345,0.73069 0.0357,0.22277 0.0535,0.47227 0.0802,-0.0535 0.19603,-0.0535 0.41881,0 0.41881,0.40099 v 0.0713 q 0,0.0267 -0.22277,0.80198 -0.22277,0.77523 -0.50791,2.58413 -0.28515,1.80889 -0.28515,3.09204 0.0802,0.0535 0.18713,0.12475 0.10693,0.0624 0.26732,0.20495 0.1604,0.13366 0.1604,0.32079 0,0.18712 -0.11584,0.33861 -0.11584,0.14257 -0.3297,0.14257 -0.43663,0 -0.79306,-0.44554 -0.34753,-0.44554 -0.34753,-0.96236 0,-1.11385 0.60594,-3.83164 -0.75742,1.58612 -1.96038,3.0564 -1.20295,1.47028 -1.66631,1.80889 -0.45445,0.33861 -0.9891,0.33861 z m -0.13366,-1.27425 q 0,0.3297 0.27623,0.3297 0.19604,0 0.3297,-0.13366 1.84453,-1.58612 3.3059,-4.39302 0.82871,-1.60394 0.87326,-1.84453 0.0535,-0.24059 0.0535,-0.4099 0,-0.1693 -0.0891,-0.32079 -0.0891,-0.15148 -0.2495,-0.15148 -0.1604,0 -0.47228,0.1693 -0.68613,0.37426 -1.69305,1.59504 -0.998,1.22077 -1.66631,2.65541 -0.66831,1.43464 -0.66831,2.50393 z"
           style="font-family:'Bad Script';-inkscape-font-specification:'Bad Script'"
           id="path285" />
        <path
           d="m 149.56298,102.60523 q -0.89108,0 -0.89108,1.03365 0,0.68613 0.32079,1.41682 0.32079,0.73068 0.54356,1.16731 0.86434,1.71978 0.86434,2.6376 0,0.9089 -0.55247,1.55047 -0.55247,0.64158 -1.59503,0.76633 h -0.11584 q -1.00692,0 -1.46137,-1.2386 -0.0178,-0.0446 -0.0178,-0.0802 v -0.0891 q 0,-0.18713 0.11584,-0.30297 0.11584,-0.12475 0.2495,-0.15148 h 0.098 q 0.17822,0 0.28515,0.14257 0.11584,0.14257 0.21386,0.32079 0.098,0.1693 0.21385,0.31188 0.11584,0.14257 0.40099,0.14257 0.60593,0 0.96237,-0.37426 0.36534,-0.38316 0.36534,-0.84652 0,-0.46336 -0.13366,-0.86435 -0.22277,-0.68613 -0.76633,-1.71087 -0.9089,-1.68414 -0.9089,-2.61977 0,-0.93563 0.47227,-1.53266 0.47227,-0.59702 1.33662,-0.59702 0.53465,0 0.91781,0.22277 0.72177,0.41881 0.72177,0.94454 0,0.51683 -0.43663,0.51683 -0.16039,0 -0.26732,-0.11584 -0.098,-0.12475 -0.21386,-0.26733 -0.31188,-0.38316 -0.72177,-0.38316 z"
           style="font-family:'Bad Script';-inkscape-font-specification:'Bad Script'"
           id="path287" />
        <path
           d="m 155.16787,98.862699 q 0.52574,0 0.52574,0.525736 0,0.766325 -0.53465,0.864345 -0.15149,0.0267 -0.3297,0.0267 -0.17822,0 -0.35643,-0.17821 -0.17822,-0.178217 -0.17822,-0.454452 0,-0.285145 0.27624,-0.534647 0.27623,-0.249502 0.59702,-0.249502 z m -1.25642,4.161341 v -0.17822 q 0,-0.12475 -0.13367,-0.60593 0,-0.22277 0.15149,-0.40099 0.15148,-0.18712 0.36534,-0.18712 0.22277,0 0.36534,0.27623 0.14258,0.27624 0.14258,0.60593 0,0.3297 -0.83762,3.93857 -0.83761,3.60887 -0.83761,3.80491 0,0.18713 0.17821,0.18713 0.11584,0 0.3297,-0.22277 0.21386,-0.23168 0.36534,-0.23168 0.29406,0 0.29406,0.37425 0,0.36534 -0.55247,0.64158 -0.55247,0.27623 -0.80197,0.27623 -0.62375,0 -0.62375,-0.99801 0,-0.20494 0.0802,-0.45445 0.0891,-0.25841 0.17822,-0.70395 0.098,-0.45445 0.26732,-1.22969 0.17822,-0.77524 0.35643,-1.60394 0.18713,-0.8287 0.44554,-2.00493 0.26733,-1.18513 0.26733,-1.28315 z"
           style="font-family:'Bad Script';-inkscape-font-specification:'Bad Script'"
           id="path289" />
        <path
           d="m 159.07079,98.862699 q 0.52574,0 0.52574,0.525736 0,0.766325 -0.53465,0.864345 -0.15148,0.0267 -0.3297,0.0267 -0.17821,0 -0.35643,-0.17821 -0.17822,-0.178217 -0.17822,-0.454452 0,-0.285145 0.27624,-0.534647 0.27623,-0.249502 0.59702,-0.249502 z m -1.25642,4.161341 v -0.17822 q 0,-0.12475 -0.13366,-0.60593 0,-0.22277 0.15148,-0.40099 0.15149,-0.18712 0.36534,-0.18712 0.22277,0 0.36535,0.27623 0.14257,0.27624 0.14257,0.60593 0,0.3297 -0.83761,3.93857 -0.83762,3.60887 -0.83762,3.80491 0,0.18713 0.17822,0.18713 0.11584,0 0.3297,-0.22277 0.21385,-0.23168 0.36534,-0.23168 0.29405,0 0.29405,0.37425 0,0.36534 -0.55246,0.64158 -0.55247,0.27623 -0.80198,0.27623 -0.62375,0 -0.62375,-0.99801 0,-0.20494 0.0802,-0.45445 0.0891,-0.25841 0.17821,-0.70395 0.098,-0.45445 0.26733,-1.22969 0.17821,-0.77524 0.35643,-1.60394 0.18712,-0.8287 0.44554,-2.00493 0.26732,-1.18513 0.26732,-1.28315 z"
           style="font-family:'Bad Script';-inkscape-font-specification:'Bad Script'"
           id="path291" />
        <path
           d="m 165.78062,103.90621 q 0,-0.88217 -0.48118,-0.88217 -0.64158,0 -2.45047,3.68015 -0.81979,1.66632 -1.14949,2.52176 -0.32079,0.84652 -0.48118,1.19404 -0.1604,0.34753 -0.32079,0.52574 -0.15148,0.17822 -0.34752,0.17822 -0.18713,0 -0.22277,-0.0891 -0.0356,-0.098 -0.0356,-0.33861 0,-0.2495 0.71286,-4.20589 0.72177,-3.96531 0.8287,-4.17025 0.11584,-0.20495 0.20495,-0.25842 0.0891,-0.0624 0.32079,-0.0624 0.23168,0 0.35643,0.17821 0.13366,0.17822 0.13366,0.32079 0,0.13366 -0.0356,0.26733 -0.0624,0.24059 -0.18713,0.59702 -0.42772,1.22078 -0.81979,3.45739 l -0.18713,1.0782 q 0.20495,-0.42772 0.46336,-1.02474 0.25842,-0.60593 0.76633,-1.72869 0.50792,-1.12276 1.13167,-2.00493 0.80197,-1.1584 1.49702,-1.1584 1.22077,0 1.22077,1.96928 0,0.7396 -0.21386,1.84453 -0.20494,1.10494 -0.46336,2.41483 -0.2495,1.30988 -0.27623,2.16532 l -0.10693,0.49009 q 0,0.19604 -0.0624,0.27624 -0.0535,0.0891 -0.34752,0.0891 -0.28514,0 -0.4188,-0.10693 -0.12475,-0.10693 -0.0802,-0.38317 l 0.89108,-5.32865 q 0.16039,-0.9891 0.16039,-1.50592 z"
           style="font-family:'Bad Script';-inkscape-font-specification:'Bad Script'"
           id="path293" />
        <path
           d="m 167.53605,111.34672 q -0.53465,0 -0.53465,-0.63267 0,-0.31188 0.26732,-0.56138 0.25842,-0.2495 0.56138,-0.2495 0.31188,0 0.59703,0.21386 0.31187,0.30296 0.31187,0.59702 0,0.29406 -0.22277,0.49901 -0.22277,0.20494 -0.48118,0.20494 -0.25841,0 -0.42772,-0.0713 z"
           style="font-family:'Bad Script';-inkscape-font-specification:'Bad Script'"
           id="path295" />
        <path
           d="m 171.42115,108.82496 q 0,1.62177 1.18513,1.62177 0.58812,0 1.10494,-0.57029 0.19604,-0.22277 0.36534,-0.40099 0.16931,-0.17822 0.34752,-0.17822 0.35644,0 0.35644,0.31188 0,0.57029 -0.73069,1.15841 -0.73068,0.5792 -1.65741,0.5792 -0.91781,0 -1.39899,-0.67722 -0.47227,-0.68613 -0.47227,-1.54157 0,-1.59503 0.58811,-3.3059 0.59702,-1.71088 1.55939,-2.86928 0.97128,-1.1584 2.04948,-1.1584 0.78415,0 1.03365,0.56138 0.0624,0.15148 0.14258,0.39207 0.0891,0.23168 0.19603,0.29406 0.0713,0.11584 0.0713,0.28515 0,0.16039 -0.15148,0.30296 -0.15149,0.14257 -0.33861,0.14257 -0.38317,0 -0.4901,-0.56138 -0.10693,-0.57029 -0.59702,-0.57029 -0.68613,0 -1.42573,1.04257 -0.73068,1.04256 -1.2386,2.53066 -0.499,1.4881 -0.499,2.61086 z"
           style="font-family:'Bad Script';-inkscape-font-specification:'Bad Script'"
           id="path297" />
        <path
           d="m 180.88441,101.91019 q 1.68414,0 1.68414,2.54849 0,1.9871 -1.09603,4.26826 -0.73959,1.53266 -1.78216,2.20988 -0.53464,0.34752 -1.10494,0.34752 -1.00691,0 -1.44354,-0.80197 -0.43663,-0.80197 -0.43663,-1.72869 0,-1.65741 0.55247,-3.2168 0.56138,-1.55939 1.51483,-2.59304 0.96237,-1.03365 2.11186,-1.03365 z m -2.38809,2.94947 q -0.96237,1.92473 -0.96237,3.76035 0,1.27425 0.70395,1.71088 0.21386,0.13366 0.4901,0.13366 0.57029,0 1.27424,-0.9891 0.70395,-0.9891 1.18514,-2.43265 0.48118,-1.45245 0.48118,-2.48611 0,-1.04256 -0.12475,-1.31879 -0.11584,-0.27624 -0.27624,-0.38317 -0.15148,-0.10693 -0.51682,-0.10693 -0.35643,0 -0.78415,0.28515 -0.82871,0.53465 -1.47028,1.82671 z"
           style="font-family:'Bad Script';-inkscape-font-specification:'Bad Script'"
           id="path299" />
        <path
           d="m 183.84279,111.12395 q 0.14257,-0.42772 0.2495,-1.04257 0.11584,-0.62375 0.29406,-1.14949 0.75742,-3.02076 1.24751,-6.40686 0.0267,-0.16039 0.0356,-0.30296 0.0178,-0.14258 0.26733,-0.42772 0.18712,-0.0713 0.27623,-0.0713 0.2495,0 0.3297,0.31188 v 0.14257 q -0.0356,1.30098 -0.40098,2.83363 l -0.45446,1.91582 q 0.19604,-0.40989 0.42772,-0.94454 0.98019,-2.26334 1.82672,-3.19897 0.84652,-0.94455 1.83562,-0.94455 0.54356,0 0.89108,0.44554 0.34752,0.43663 0.34752,1.02474 0,0.0891 -0.009,0.1604 -0.009,0.0624 -0.009,0.13366 0.98909,-1.20296 2.05839,-1.63959 0.3297,-0.14257 0.6594,-0.14257 0.33861,0 0.64157,0.32079 0.30297,0.31188 0.30297,0.84652 0,0.53465 -0.11584,1.1495 -0.11584,0.61484 -0.29405,1.2386 -0.16931,0.62375 -0.39208,1.26533 -0.21386,0.63267 -0.56138,1.76434 -0.34752,1.13167 -0.4099,1.7376 -0.0624,0.59702 -0.10693,0.71286 -0.0356,0.11584 -0.16039,0.26733 -0.11584,0.16039 -0.3297,0.16039 -0.41881,0 -0.41881,-0.89108 0,-0.56138 0.20495,-1.21187 0.20495,-0.65048 0.3297,-1.09602 0.13366,-0.44554 0.35643,-1.0693 0.22277,-0.62375 0.55247,-1.63958 0.3297,-1.01583 0.43663,-2.17424 0,-0.37425 -0.098,-0.43662 -0.0891,-0.0713 -0.3297,-0.0713 -0.24059,0 -0.73068,0.31188 -0.48118,0.31187 -0.98019,0.88216 -1.11385,1.30989 -1.67523,3.2168 -0.16039,0.57029 -0.30296,0.98019 -0.14258,0.40989 -0.38317,1.12276 -0.23168,0.71286 -0.37425,1.25642 -0.13366,0.53465 -0.24059,0.67722 -0.098,0.14257 -0.3297,0.14257 -0.41881,0 -0.45445,-0.45445 0.21386,-1.49701 0.64157,-2.6465 0.42772,-1.1495 0.69505,-1.82672 0.26732,-0.67722 0.51682,-1.52374 0.2495,-0.85544 0.2495,-1.47028 0,-0.61485 -0.38316,-0.61485 -1.05147,0 -2.76235,3.45739 -0.91781,1.84453 -1.11384,2.43265 -0.19604,0.58811 -0.30297,0.89999 -0.58811,1.84453 -1.11385,1.84453 -0.17822,0 -0.31188,-0.0802 -0.12475,-0.0713 -0.12475,-0.17821 z"
           style="font-family:'Bad Script';-inkscape-font-specification:'Bad Script'"
           id="path301" />
      </g>
      <g
         aria-label="Rek  mendasiin.com"
         transform="scale(1.0102134,0.98988986)"
         id="text1550-0-6-7-6"
         style="font-size:18.2493px;line-height:1.25;fill:#ff0000;stroke-width:0.109197">
        <path
           d="m 69.215195,102.40812 q 0,-0.54356 0.302967,-0.54356 0.178216,0 0.23168,0.0535 0.05347,0.0535 0.196038,0.16931 0.151483,0.10693 0.837614,0.10693 0.695042,0 1.434638,-0.39208 0.748506,-0.39207 1.292064,-1.05147 1.140582,-1.398993 1.140582,-3.323724 0,-1.497013 -0.730685,-2.530665 -0.721774,-1.042562 -1.897999,-1.042562 -0.935633,0 -1.425726,0.142572 L 67.228089,110.4546 q -0.09802,0.31188 -0.507916,0.31188 -0.409896,0 -0.409896,-0.29406 0,-0.0802 0.02673,-0.17821 0.02673,-0.10693 0.10693,-0.50792 0.196037,-1.00692 1.327708,-6.42468 1.140581,-5.426669 1.933641,-8.946432 -0.267323,0.169305 -0.641576,0.507916 -0.01782,0.196037 -0.187127,0.33861 -0.169305,0.142572 -0.392075,0.142572 l -0.22277,-0.05346 q -0.249502,-0.115841 -0.249502,-0.374254 0,-0.499004 0.579202,-0.917811 0.588112,-0.427718 1.461369,-0.650488 0.320789,-0.766328 0.588113,-0.766328 0.213859,0 0.320788,0.605934 0.383164,-0.05347 0.730685,-0.05347 1.91582,0 2.896007,1.35444 0.810882,1.12276 0.810882,2.967294 0,2.37027 -1.398994,3.956387 -1.390084,1.57721 -3.894016,1.57721 0,3.0475 1.033652,5.9435 1.202957,3.41284 3.653424,5.0346 1.871266,1.24751 4.410842,1.24751 2.539575,0 4.642522,-1.71087 0.632666,-0.52574 1.318797,-1.14058 0.07129,-0.0713 0.23168,-0.0713 0.3297,0 0.3297,0.3297 0,0.18713 -0.142573,0.36534 -1.35444,1.399 -2.646505,2.09404 -1.764336,0.95345 -3.992034,0.95345 -2.218787,0 -4.312823,-1.28315 -3.778175,-2.33463 -4.981132,-7.85932 -0.436629,-2.00493 -0.436629,-4.5445 z"
           style="font-family:'Bad Script';-inkscape-font-specification:'Bad Script'"
           id="path304" />
        <path
           d="m 79.30221,109.23378 q 0.311878,0 0.311878,0.3297 0,0.38317 -0.935633,0.86435 -0.935633,0.48118 -1.559389,0.48118 -0.623755,0 -0.935633,-0.20495 -0.311877,-0.20494 -0.507915,-0.57029 -0.383164,-0.71286 -0.383164,-1.71978 0,-1.78216 0.534648,-3.35937 0.534647,-1.57721 1.425726,-2.61086 0.891079,-1.04256 1.924731,-1.04256 0.552469,0 0.864347,0.46336 0.320788,0.45445 0.320788,1.07821 0,1.16731 -0.614844,1.97819 -0.605934,0.81088 -1.497013,1.32771 -0.891079,0.51682 -2.049482,0.98019 l -0.03564,1.30988 q 0,1.53266 0.926722,1.53266 0.499004,0 1.042563,-0.28515 0.552469,-0.29405 0.79306,-0.4188 0.240591,-0.13367 0.374253,-0.13367 z m 0.22277,-6.25537 q 0,-0.71286 -0.597023,-0.71286 -0.534647,0 -1.256422,0.96236 -0.721774,0.96237 -1.194046,2.53958 -0.11584,0.38316 -0.133661,0.5792 0.356431,-0.19604 0.730684,-0.37426 0.374254,-0.17821 0.730685,-0.37425 0.819793,-0.45445 1.265333,-1.06038 0.45445,-0.61485 0.45445,-1.55939 z"
           style="font-family:'Bad Script';-inkscape-font-specification:'Bad Script'"
           id="path306" />
        <path
           d="m 87.794194,108.93973 q 0.472272,0 0.472272,0.59702 0,0.35643 -0.302967,0.70395 -0.597023,0.66831 -1.220778,0.66831 -1.051474,0 -1.862356,-0.66831 -0.801971,-0.66831 -1.309886,-1.60394 -0.507915,-0.93563 -0.623755,-1.58612 l -0.04455,0.0267 q -0.06238,0.46336 -0.392075,1.80889 -0.329699,1.33662 -0.383164,1.60395 -0.08911,0.46336 -0.427718,0.46336 -0.276235,0 -0.392075,-0.098 -0.11584,-0.098 -0.11584,-0.1604 v -0.0713 q 0,-0.51683 0.819793,-3.98313 0.828703,-3.46629 1.033651,-4.37519 1.024741,-4.393025 1.390084,-6.558347 0.365342,-2.174233 0.45445,-2.37027 0.09802,-0.196038 0.22277,-0.196038 0.588112,0 0.588112,0.605934 0,0.213859 -0.213859,1.220779 -0.204948,1.006919 -0.392075,1.897998 -0.178215,0.882168 -0.597023,2.806899 -0.418807,1.915825 -0.552469,2.539575 0.748507,-0.78415 1.479192,-0.78415 0.730684,0 0.998008,0.50792 0.276235,0.499 0.276235,1.06929 0,1.07821 -0.757418,1.88909 -0.757417,0.81088 -2.290073,1.7376 0.249502,1.37226 1.149492,2.39701 0.89999,1.02474 1.862356,1.02474 0.445539,0 0.659398,-0.41881 0.09802,-0.17822 0.187127,-0.43663 0.08911,-0.25841 0.285145,-0.25841 z m -2.575219,-6.67418 q -0.695041,0 -1.202956,0.62375 -0.499005,0.61485 -0.730685,1.88018 -0.04455,0.25841 -0.169305,0.8287 l -0.124751,0.64158 q 0.08911,-0.0713 0.329699,-0.21386 0.240591,-0.15148 0.801971,-0.53465 0.56138,-0.38316 1.104938,-1.00692 0.543558,-0.62375 0.543558,-1.41681 0,-0.80197 -0.552469,-0.80197 z"
           style="font-family:'Bad Script';-inkscape-font-specification:'Bad Script'"
           id="path308" />
        <path
           d="m 104.43955,110.7308 q 0.14257,-0.42772 0.2495,-1.04257 0.11584,-0.62375 0.29406,-1.14949 0.75742,-3.02076 1.24751,-6.40686 0.0267,-0.16039 0.0356,-0.30296 0.0178,-0.14258 0.26733,-0.42772 0.18712,-0.0713 0.27623,-0.0713 0.2495,0 0.3297,0.31188 v 0.14257 q -0.0356,1.30098 -0.40098,2.83363 l -0.45446,1.91582 q 0.19604,-0.40989 0.42772,-0.94454 0.98019,-2.26334 1.82671,-3.19897 0.84653,-0.94455 1.83563,-0.94455 0.54356,0 0.89108,0.44554 0.34752,0.43663 0.34752,1.02474 0,0.0891 -0.009,0.1604 -0.009,0.0624 -0.009,0.13366 0.98909,-1.20296 2.05839,-1.63959 0.3297,-0.14257 0.6594,-0.14257 0.33861,0 0.64157,0.32079 0.30297,0.31188 0.30297,0.84652 0,0.53465 -0.11584,1.1495 -0.11584,0.61484 -0.29406,1.2386 -0.1693,0.62375 -0.39207,1.26533 -0.21386,0.63267 -0.56138,1.76434 -0.34752,1.13167 -0.4099,1.7376 -0.0624,0.59702 -0.10693,0.71286 -0.0356,0.11584 -0.16039,0.26733 -0.11584,0.16039 -0.3297,0.16039 -0.41881,0 -0.41881,-0.89108 0,-0.56138 0.20495,-1.21187 0.20495,-0.65048 0.3297,-1.09602 0.13366,-0.44554 0.35643,-1.0693 0.22277,-0.62375 0.55247,-1.63958 0.3297,-1.01583 0.43663,-2.17424 0,-0.37425 -0.098,-0.43663 -0.0891,-0.0713 -0.3297,-0.0713 -0.24059,0 -0.73068,0.31188 -0.48118,0.31187 -0.98019,0.88216 -1.11385,1.30989 -1.67523,3.2168 -0.16039,0.57029 -0.30296,0.98019 -0.14258,0.40989 -0.38317,1.12276 -0.23168,0.71286 -0.37425,1.25642 -0.13366,0.53465 -0.24059,0.67722 -0.098,0.14257 -0.3297,0.14257 -0.41881,0 -0.45445,-0.45445 0.21386,-1.49701 0.64157,-2.6465 0.42772,-1.1495 0.69505,-1.82672 0.26732,-0.67722 0.51682,-1.52374 0.2495,-0.85544 0.2495,-1.47028 0,-0.61485 -0.38316,-0.61485 -1.05147,0 -2.76235,3.45739 -0.91781,1.84453 -1.11384,2.43265 -0.19604,0.58811 -0.30297,0.89999 -0.58811,1.84453 -1.11385,1.84453 -0.17822,0 -0.31188,-0.0802 -0.12475,-0.0713 -0.12475,-0.17821 z"
           style="font-family:'Bad Script';-inkscape-font-specification:'Bad Script'"
           id="path310" />
        <path
           d="m 120.87996,109.23378 q 0.31188,0 0.31188,0.3297 0,0.38317 -0.93563,0.86435 -0.93564,0.48118 -1.55939,0.48118 -0.62376,0 -0.93564,-0.20495 -0.31187,-0.20494 -0.50791,-0.57029 -0.38316,-0.71286 -0.38316,-1.71978 0,-1.78216 0.53464,-3.35937 0.53465,-1.57721 1.42573,-2.61086 0.89108,-1.04256 1.92473,-1.04256 0.55247,0 0.86435,0.46336 0.32079,0.45445 0.32079,1.07821 0,1.16731 -0.61485,1.97819 -0.60593,0.81088 -1.49701,1.32771 -0.89108,0.51682 -2.04948,0.98019 l -0.0357,1.30988 q 0,1.53266 0.92673,1.53266 0.499,0 1.04256,-0.28515 0.55247,-0.29405 0.79306,-0.4188 0.24059,-0.13367 0.37425,-0.13367 z m 0.22277,-6.25537 q 0,-0.71286 -0.59702,-0.71286 -0.53465,0 -1.25642,0.96236 -0.72178,0.96237 -1.19405,2.53958 -0.11584,0.38316 -0.13366,0.5792 0.35643,-0.19604 0.73068,-0.37426 0.37426,-0.17821 0.73069,-0.37425 0.81979,-0.45445 1.26533,-1.06038 0.45445,-0.61485 0.45445,-1.55939 z"
           style="font-family:'Bad Script';-inkscape-font-specification:'Bad Script'"
           id="path312" />
        <path
           d="m 128.40067,103.51306 q 0,-0.88217 -0.48118,-0.88217 -0.64158,0 -2.45047,3.68015 -0.81979,1.66632 -1.14949,2.52176 -0.32079,0.84652 -0.48118,1.19404 -0.1604,0.34753 -0.32079,0.52574 -0.15149,0.17822 -0.34752,0.17822 -0.18713,0 -0.22277,-0.0891 -0.0357,-0.098 -0.0357,-0.33861 0,-0.2495 0.71287,-4.20589 0.72177,-3.96531 0.8287,-4.17025 0.11584,-0.20495 0.20495,-0.25842 0.0891,-0.0624 0.32079,-0.0624 0.23168,0 0.35643,0.17821 0.13366,0.17822 0.13366,0.32079 0,0.13366 -0.0356,0.26732 -0.0624,0.2406 -0.18713,0.59703 -0.42772,1.22078 -0.81979,3.45738 l -0.18713,1.07821 q 0.20495,-0.42772 0.46336,-1.02474 0.25842,-0.60593 0.76633,-1.72869 0.50792,-1.12276 1.13167,-2.00493 0.80197,-1.1584 1.49701,-1.1584 1.22078,0 1.22078,1.96928 0,0.7396 -0.21386,1.84453 -0.20494,1.10494 -0.46336,2.41483 -0.2495,1.30988 -0.27623,2.16532 l -0.10693,0.49009 q 0,0.19604 -0.0624,0.27624 -0.0535,0.0891 -0.34752,0.0891 -0.28514,0 -0.41881,-0.10693 -0.12475,-0.10693 -0.0802,-0.38317 l 0.89108,-5.32865 q 0.16039,-0.9891 0.16039,-1.50592 z"
           style="font-family:'Bad Script';-inkscape-font-specification:'Bad Script'"
           id="path314" />
        <path
           d="m 136.34018,102.33683 0.87326,-3.831638 q 0.0891,-0.409897 0.42772,-2.111858 0.34752,-1.710872 0.50792,-2.379181 l 0.0356,-0.22277 q 0,-0.23168 0.15148,-0.392075 0.1604,-0.169305 0.3297,-0.169305 0.39208,0 0.39208,0.418807 v 0.0802 q 0,0.436628 -0.63267,3.323725 -0.62376,2.887096 -0.81088,4.063315 -0.18713,1.17623 -0.71287,3.28809 -0.51682,2.11185 -0.65048,2.85145 -0.13366,0.73959 -0.25842,1.25642 -0.12475,0.50791 -0.12475,1.01583 0,0.50792 0.1604,1.02474 -0.0267,0.21386 -0.19604,0.35643 -0.16931,0.15149 -0.31188,0.15149 -0.23168,0 -0.40098,-0.54356 -0.16931,-0.55247 -0.16931,-0.91781 0,-0.37426 0.10693,-0.87326 -0.36534,1.10494 -0.94454,1.63958 -0.5792,0.52574 -1.52375,0.52574 -0.93563,0 -1.33662,-0.76633 -0.39207,-0.77524 -0.39207,-1.51483 0,-2.7267 1.03365,-4.61579 0.48118,-0.87326 0.84653,-1.29207 0.37425,-0.4188 0.95345,-0.80197 0.5792,-0.38316 1.42573,-0.38316 0.84652,0 1.22077,0.81979 z m -0.65939,2.86928 q 0.14257,-0.73069 0.17821,-0.92673 0.0446,-0.20494 0.0446,-0.65939 0,-0.46337 -0.26733,-0.89999 -0.26732,-0.43663 -0.75741,-0.43663 -0.87326,0 -1.60395,1.10494 -0.72177,1.09602 -1.1584,2.5663 -0.42772,1.46137 -0.42772,2.46829 0,1.00692 0.57029,1.43464 0.18713,0.14257 0.49901,0.14257 0.63266,0 1.35444,-1.0782 0.72177,-1.07821 1.0782,-2.03166 0.35643,-0.96237 0.4901,-1.68414 z"
           style="font-family:'Bad Script';-inkscape-font-specification:'Bad Script'"
           id="path316" />
        <path
           d="m 139.66391,110.7308 q -1.04256,0 -1.04256,-1.30989 0,-1.30989 0.97128,-3.20788 0.98018,-1.90691 2.29898,-3.28809 1.3188,-1.39008 2.1475,-1.39008 0.83761,0 0.95346,0.73069 0.0356,0.22277 0.0535,0.47227 0.0802,-0.0535 0.19604,-0.0535 0.4188,0 0.4188,0.40099 v 0.0713 q 0,0.0267 -0.22277,0.80198 -0.22277,0.77523 -0.50791,2.58413 -0.28515,1.80889 -0.28515,3.09204 0.0802,0.0535 0.18713,0.12475 0.10693,0.0624 0.26732,0.20495 0.1604,0.13366 0.1604,0.32079 0,0.18712 -0.11584,0.33861 -0.11584,0.14257 -0.3297,0.14257 -0.43663,0 -0.79306,-0.44554 -0.34752,-0.44554 -0.34752,-0.96237 0,-1.11384 0.60593,-3.83164 -0.75742,1.58613 -1.96037,3.05641 -1.20296,1.47028 -1.66632,1.80889 -0.45445,0.33861 -0.9891,0.33861 z m -0.13366,-1.27425 q 0,0.3297 0.27623,0.3297 0.19604,0 0.3297,-0.13366 1.84454,-1.58612 3.30591,-4.39302 0.8287,-1.60394 0.87325,-1.84453 0.0535,-0.24059 0.0535,-0.4099 0,-0.1693 -0.0891,-0.32079 -0.0891,-0.15148 -0.2495,-0.15148 -0.16039,0 -0.47227,0.1693 -0.68613,0.37426 -1.69305,1.59504 -0.99801,1.22077 -1.66632,2.65541 -0.66831,1.43464 -0.66831,2.50393 z"
           style="font-family:'Bad Script';-inkscape-font-specification:'Bad Script'"
           id="path318" />
        <path
           d="m 149.97369,102.21208 q -0.89108,0 -0.89108,1.03365 0,0.68613 0.32079,1.41682 0.32079,0.73068 0.54356,1.16731 0.86435,1.71978 0.86435,2.6376 0,0.9089 -0.55247,1.55047 -0.55247,0.64158 -1.59504,0.76633 h -0.11584 q -1.00691,0 -1.46137,-1.2386 -0.0178,-0.0446 -0.0178,-0.0802 v -0.0891 q 0,-0.18713 0.11584,-0.30297 0.11584,-0.12475 0.24951,-0.15148 h 0.098 q 0.17822,0 0.28515,0.14257 0.11584,0.14257 0.21386,0.32079 0.098,0.1693 0.21386,0.31188 0.11584,0.14257 0.40098,0.14257 0.60594,0 0.96237,-0.37426 0.36534,-0.38316 0.36534,-0.84652 0,-0.46336 -0.13366,-0.86435 -0.22277,-0.68613 -0.76633,-1.71087 -0.9089,-1.68414 -0.9089,-2.61977 0,-0.93563 0.47227,-1.53266 0.47227,-0.59702 1.33662,-0.59702 0.53465,0 0.91781,0.22277 0.72178,0.41881 0.72178,0.94454 0,0.51683 -0.43663,0.51683 -0.1604,0 -0.26733,-0.11584 -0.098,-0.12475 -0.21385,-0.26733 -0.31188,-0.38316 -0.72178,-0.38316 z"
           style="font-family:'Bad Script';-inkscape-font-specification:'Bad Script'"
           id="path320" />
        <path
           d="m 155.57858,98.469548 q 0.52574,0 0.52574,0.525737 0,0.766328 -0.53465,0.864347 -0.15148,0.02673 -0.3297,0.02673 -0.17821,0 -0.35643,-0.178216 -0.17822,-0.178215 -0.17822,-0.45445 0,-0.285145 0.27624,-0.534647 0.27623,-0.249503 0.59702,-0.249503 z m -1.25642,4.161342 v -0.17822 q 0,-0.12475 -0.13366,-0.60593 0,-0.22277 0.15148,-0.40099 0.15149,-0.18712 0.36534,-0.18712 0.22277,0 0.36535,0.27623 0.14257,0.27624 0.14257,0.60593 0,0.3297 -0.83762,3.93857 -0.83761,3.60887 -0.83761,3.80491 0,0.18713 0.17822,0.18713 0.11584,0 0.3297,-0.22277 0.21385,-0.23168 0.36534,-0.23168 0.29405,0 0.29405,0.37425 0,0.36534 -0.55247,0.64158 -0.55246,0.27623 -0.80197,0.27623 -0.62375,0 -0.62375,-0.99801 0,-0.20494 0.0802,-0.45445 0.0891,-0.25841 0.17821,-0.70395 0.098,-0.45445 0.26733,-1.22969 0.17821,-0.77524 0.35643,-1.60394 0.18712,-0.8287 0.44554,-2.00493 0.26732,-1.18513 0.26732,-1.28315 z"
           style="font-family:'Bad Script';-inkscape-font-specification:'Bad Script'"
           id="path322" />
        <path
           d="m 159.48151,98.469548 q 0.52573,0 0.52573,0.525737 0,0.766328 -0.53465,0.864347 -0.15148,0.02673 -0.32969,0.02673 -0.17822,0 -0.35644,-0.178216 -0.17821,-0.178215 -0.17821,-0.45445 0,-0.285145 0.27623,-0.534647 0.27624,-0.249503 0.59703,-0.249503 z m -1.25643,4.161342 v -0.17822 q 0,-0.12475 -0.13366,-0.60593 0,-0.22277 0.15149,-0.40099 0.15148,-0.18712 0.36534,-0.18712 0.22277,0 0.36534,0.27623 0.14257,0.27624 0.14257,0.60593 0,0.3297 -0.83761,3.93857 -0.83762,3.60887 -0.83762,3.80491 0,0.18713 0.17822,0.18713 0.11584,0 0.3297,-0.22277 0.21386,-0.23168 0.36534,-0.23168 0.29406,0 0.29406,0.37425 0,0.36534 -0.55247,0.64158 -0.55247,0.27623 -0.80197,0.27623 -0.62376,0 -0.62376,-0.99801 0,-0.20494 0.0802,-0.45445 0.0891,-0.25841 0.17821,-0.70395 0.098,-0.45445 0.26733,-1.22969 0.17821,-0.77524 0.35643,-1.60394 0.18713,-0.8287 0.44554,-2.00493 0.26732,-1.18513 0.26732,-1.28315 z"
           style="font-family:'Bad Script';-inkscape-font-specification:'Bad Script'"
           id="path324" />
        <path
           d="m 166.19134,103.51306 q 0,-0.88217 -0.48119,-0.88217 -0.64157,0 -2.45046,3.68015 -0.8198,1.66632 -1.1495,2.52176 -0.32079,0.84652 -0.48118,1.19404 -0.16039,0.34753 -0.32079,0.52574 -0.15148,0.17822 -0.34752,0.17822 -0.18713,0 -0.22277,-0.0891 -0.0356,-0.098 -0.0356,-0.33861 0,-0.2495 0.71286,-4.20589 0.72178,-3.96531 0.82871,-4.17025 0.11584,-0.20495 0.20494,-0.25842 0.0891,-0.0624 0.32079,-0.0624 0.23168,0 0.35643,0.17821 0.13367,0.17822 0.13367,0.32079 0,0.13366 -0.0357,0.26732 -0.0624,0.2406 -0.18712,0.59703 -0.42772,1.22078 -0.8198,3.45738 l -0.18712,1.07821 q 0.20494,-0.42772 0.46336,-1.02474 0.25841,-0.60593 0.76633,-1.72869 0.50791,-1.12276 1.13167,-2.00493 0.80197,-1.1584 1.49701,-1.1584 1.22078,0 1.22078,1.96928 0,0.7396 -0.21386,1.84453 -0.20495,1.10494 -0.46336,2.41483 -0.24951,1.30988 -0.27624,2.16532 l -0.10693,0.49009 q 0,0.19604 -0.0624,0.27624 -0.0535,0.0891 -0.34752,0.0891 -0.28515,0 -0.41881,-0.10693 -0.12475,-0.10693 -0.0802,-0.38317 l 0.89108,-5.32865 q 0.1604,-0.9891 0.1604,-1.50592 z"
           style="font-family:'Bad Script';-inkscape-font-specification:'Bad Script'"
           id="path326" />
        <path
           d="m 167.94676,110.95357 q -0.53465,0 -0.53465,-0.63267 0,-0.31188 0.26733,-0.56138 0.25841,-0.2495 0.56138,-0.2495 0.31187,0 0.59702,0.21386 0.31188,0.30296 0.31188,0.59702 0,0.29406 -0.22277,0.499 -0.22277,0.20495 -0.48119,0.20495 -0.25841,0 -0.42771,-0.0713 z"
           style="font-family:'Bad Script';-inkscape-font-specification:'Bad Script'"
           id="path328" />
        <path
           d="m 171.83186,108.43181 q 0,1.62177 1.18514,1.62177 0.58811,0 1.10493,-0.57029 0.19604,-0.22277 0.36535,-0.40099 0.1693,-0.17822 0.34752,-0.17822 0.35643,0 0.35643,0.31188 0,0.57029 -0.73069,1.15841 -0.73068,0.5792 -1.6574,0.5792 -0.91781,0 -1.399,-0.67722 -0.47227,-0.68613 -0.47227,-1.54157 0,-1.59503 0.58811,-3.3059 0.59703,-1.71088 1.55939,-2.86928 0.97128,-1.1584 2.04948,-1.1584 0.78415,0 1.03366,0.56138 0.0624,0.15148 0.14257,0.39207 0.0891,0.23168 0.19604,0.29406 0.0713,0.11584 0.0713,0.28514 0,0.1604 -0.15148,0.30297 -0.15148,0.14257 -0.33861,0.14257 -0.38317,0 -0.49009,-0.56138 -0.10693,-0.57029 -0.59703,-0.57029 -0.68613,0 -1.42572,1.04257 -0.73069,1.04256 -1.2386,2.53066 -0.49901,1.4881 -0.49901,2.61086 z"
           style="font-family:'Bad Script';-inkscape-font-specification:'Bad Script'"
           id="path330" />
        <path
           d="m 181.29512,101.51704 q 1.68414,0 1.68414,2.54849 0,1.9871 -1.09603,4.26826 -0.73959,1.53266 -1.78215,2.20988 -0.53465,0.34752 -1.10494,0.34752 -1.00692,0 -1.44355,-0.80197 -0.43663,-0.80197 -0.43663,-1.72869 0,-1.65741 0.55247,-3.2168 0.56138,-1.55939 1.51483,-2.59304 0.96237,-1.03365 2.11186,-1.03365 z m -2.38809,2.94947 q -0.96237,1.92473 -0.96237,3.76035 0,1.27425 0.70396,1.71088 0.21386,0.13366 0.49009,0.13366 0.57029,0 1.27424,-0.9891 0.70396,-0.9891 1.18514,-2.43265 0.48118,-1.45245 0.48118,-2.48611 0,-1.04256 -0.12475,-1.31879 -0.11584,-0.27624 -0.27623,-0.38317 -0.15149,-0.10693 -0.51683,-0.10693 -0.35643,0 -0.78415,0.28515 -0.8287,0.53465 -1.47028,1.82671 z"
           style="font-family:'Bad Script';-inkscape-font-specification:'Bad Script'"
           id="path332" />
        <path
           d="m 184.2535,110.7308 q 0.14258,-0.42772 0.24951,-1.04257 0.11584,-0.62375 0.29405,-1.14949 0.75742,-3.02076 1.24751,-6.40686 0.0267,-0.16039 0.0357,-0.30296 0.0178,-0.14258 0.26732,-0.42772 0.18713,-0.0713 0.27623,-0.0713 0.24951,0 0.3297,0.31188 v 0.14257 q -0.0356,1.30098 -0.40098,2.83363 l -0.45445,1.91582 q 0.19604,-0.40989 0.42772,-0.94454 0.98018,-2.26334 1.82671,-3.19897 0.84652,-0.94455 1.83562,-0.94455 0.54356,0 0.89108,0.44554 0.34752,0.43663 0.34752,1.02474 0,0.0891 -0.009,0.1604 -0.009,0.0624 -0.009,0.13366 0.9891,-1.20296 2.05839,-1.63959 0.3297,-0.14257 0.6594,-0.14257 0.33861,0 0.64158,0.32079 0.30296,0.31188 0.30296,0.84652 0,0.53465 -0.11584,1.1495 -0.11584,0.61484 -0.29405,1.2386 -0.16931,0.62375 -0.39208,1.26533 -0.21386,0.63267 -0.56138,1.76434 -0.34752,1.13167 -0.40989,1.7376 -0.0624,0.59702 -0.10693,0.71286 -0.0357,0.11584 -0.1604,0.26733 -0.11584,0.16039 -0.3297,0.16039 -0.4188,0 -0.4188,-0.89108 0,-0.56138 0.20495,-1.21187 0.20494,-0.65048 0.32969,-1.09602 0.13367,-0.44554 0.35644,-1.0693 0.22277,-0.62375 0.55247,-1.63958 0.32969,-1.01583 0.43662,-2.17424 0,-0.37425 -0.098,-0.43663 -0.0891,-0.0713 -0.3297,-0.0713 -0.2406,0 -0.73069,0.31188 -0.48118,0.31187 -0.98019,0.88216 -1.11384,1.30989 -1.67522,3.2168 -0.1604,0.57029 -0.30297,0.98019 -0.14257,0.40989 -0.38317,1.12276 -0.23168,0.71286 -0.37425,1.25642 -0.13366,0.53465 -0.24059,0.67722 -0.098,0.14257 -0.3297,0.14257 -0.41881,0 -0.45445,-0.45445 0.21386,-1.49701 0.64158,-2.6465 0.42772,-1.1495 0.69504,-1.82672 0.26732,-0.67722 0.51682,-1.52374 0.24951,-0.85544 0.24951,-1.47028 0,-0.61485 -0.38317,-0.61485 -1.05147,0 -2.76234,3.45739 -0.91781,1.84453 -1.11385,2.43265 -0.19604,0.58811 -0.30297,0.89999 -0.58811,1.84453 -1.11385,1.84453 -0.17821,0 -0.31187,-0.0802 -0.12476,-0.0713 -0.12476,-0.17821 z"
           style="font-family:'Bad Script';-inkscape-font-specification:'Bad Script'"
           id="path334" />
      </g>
      <g
         id="g1287"
         style="fill:#999999"
         transform="matrix(1.0898028,0,0,1.0898028,45.789236,60.431817)">
        <path
           d="m 52.009528,41.89648 c 0,-2.856583 -2.315721,-5.172297 -5.1723,-5.172297 -2.856665,-7.5e-5 -5.182181,2.333839 -5.172303,5.190498 0.0053,1.418489 0.580854,2.702331 1.509981,3.633857 0.723279,0.725149 1.252324,1.620669 1.519688,2.609369 l 0.417103,1.542487 h 3.390536 L 48.89725,48.23943 c 0.273113,-1.009933 0.820128,-1.921328 1.566126,-2.6548 0.954327,-0.938372 1.546152,-2.244068 1.546152,-3.68815 z"
           fill="#f4d242"
           id="path20-7-2-0"
           style="isolation:isolate;fill:#999999;fill-opacity:1;stroke-width:0.0777893" />
        <path
           d="m 47.620406,51.506895 h -1.6531 c -0.468365,0 -0.869058,-0.345856 -0.895749,-0.784666 l -0.139548,-1.693943 3.743921,-0.02392 -0.159772,1.717897 c -0.02669,0.438811 -0.427374,0.784657 -0.895752,0.784657 z"
           fill="#ffffff"
           id="path22-5-4-2"
           style="isolation:isolate;fill:#999999;fill-opacity:1;stroke-width:0.0777893" />
        <path
           d="m 47.258924,34.094053 c 0,0.333239 -0.1772,1.531509 -0.395795,1.531509 -0.218666,0 -0.395863,-1.19827 -0.395863,-1.531509 0,-0.333333 0.177197,-0.60358 0.395863,-0.60358 0.218595,0 0.395795,0.270247 0.395795,0.60358 z"
           fill="#f4d242"
           id="path28-6-5-1"
           style="isolation:isolate;fill:#999999;stroke-width:0.0777893" />
        <path
           d="m 52.191321,35.934385 c -0.252821,0.217263 -1.046198,1.132537 -0.903758,1.29838 0.14251,0.165852 1.166837,-0.480664 1.419656,-0.697842 0.252821,-0.217263 0.342272,-0.5278 0.199763,-0.693577 -0.142427,-0.165852 -0.462925,-0.124149 -0.715661,0.09303 z"
           fill="#f4d242"
           id="path30-2-4-0"
           style="isolation:isolate;fill:#999999;stroke-width:0.0777893" />
        <path
           d="m 54.113654,41.28179 c -0.330689,0.04209 -1.541714,0.01723 -1.569249,-0.199693 -0.02753,-0.216953 1.138841,-0.543676 1.469447,-0.585671 0.330682,-0.042 0.621062,0.09972 0.648605,0.316592 0.02753,0.216886 -0.218122,0.426758 -0.548803,0.468772 z"
           fill="#f4d242"
           id="path32-9-8-5"
           style="isolation:isolate;fill:#999999;stroke-width:0.0777893" />
        <path
           d="m 41.987598,35.536412 c 0.262385,0.205521 1.09652,1.083838 0.961787,1.255914 -0.134806,0.172151 -1.187453,-0.427059 -1.449911,-0.632675 -0.262383,-0.205427 -0.365853,-0.511614 -0.23112,-0.683671 0.134816,-0.17216 0.456859,-0.14508 0.719244,0.06045 z"
           fill="#f4d242"
           id="path34-1-1-1"
           style="isolation:isolate;fill:#999999;stroke-width:0.0777893" />
        <path
           d="m 39.48278,40.425167 c 0.330607,0.0419 1.541706,0.01714 1.56925,-0.199768 0.02753,-0.216868 -1.13884,-0.543657 -1.469521,-0.585671 -0.330691,-0.042 -0.62107,0.09983 -0.648615,0.316677 -0.02753,0.216886 0.218206,0.426682 0.548886,0.468762 z"
           fill="#f4d242"
           id="path36-27-2-1"
           style="isolation:isolate;fill:#999999;stroke-width:0.0777893" />
      </g>
      <path
         d="m 102.72444,105.87034 c 0,-3.11311 -2.52368,-5.63678 -5.636783,-5.63678 -3.113204,-8e-5 -5.647557,2.54342 -5.636793,5.65661 0.0058,1.54588 0.633019,2.94501 1.645582,3.96019 0.788231,0.79027 1.364787,1.76621 1.65616,2.8437 l 0.454562,1.681 h 3.695013 l 0.430493,-1.59216 c 0.297638,-1.10063 0.893776,-2.09387 1.706766,-2.89321 1.04003,-1.02264 1.685,-2.44559 1.685,-4.01935 z"
         fill="#f4d242"
         id="path20-7-2"
         style="isolation:isolate;fill:url(#radialGradient996-6);fill-opacity:1;stroke-width:0.0847749" />
      <path
         d="m 97.54722,97.367233 c 0,0.363164 -0.19311,1.669044 -0.431336,1.669044 -0.238315,0 -0.431414,-1.30588 -0.431414,-1.669044 0,-0.363269 0.19311,-0.657782 0.431414,-0.657782 0.238231,0 0.431336,0.294513 0.431336,0.657782 z"
         fill="#f4d242"
         id="path28-6-5"
         style="isolation:isolate;stroke-width:0.0847749" />
      <path
         d="m 102.92256,99.372831 c -0.27553,0.236761 -1.14015,1.234239 -0.98492,1.414979 0.15532,0.18073 1.27162,-0.52383 1.54715,-0.76051 0.27553,-0.23676 0.37301,-0.575199 0.2177,-0.755861 -0.15524,-0.180734 -0.5045,-0.135307 -0.77994,0.101398 z"
         fill="#f4d242"
         id="path30-2-4"
         style="isolation:isolate;stroke-width:0.0847749" />
      <path
         d="m 105.01752,105.20045 c -0.36038,0.0459 -1.68016,0.0189 -1.71017,-0.21762 -0.03,-0.23642 1.24112,-0.5925 1.60141,-0.63826 0.36038,-0.0458 0.67683,0.10869 0.70685,0.34502 0.03,0.23637 -0.2377,0.46508 -0.59809,0.51087 z"
         fill="#f4d242"
         id="path32-9-8"
         style="isolation:isolate;stroke-width:0.0847749" />
      <path
         d="m 91.802515,98.93912 c 0.285949,0.223968 1.194992,1.18117 1.04816,1.3687 -0.146907,0.18761 -1.29409,-0.465413 -1.580117,-0.689492 -0.285947,-0.223885 -0.398708,-0.557559 -0.251885,-0.745067 0.146935,-0.187616 0.497886,-0.158118 0.783833,0.06588 z"
         fill="#f4d242"
         id="path34-1-1"
         style="isolation:isolate;stroke-width:0.0847749" />
      <path
         d="m 89.072757,104.2669 c 0.360297,0.0457 1.680157,0.0186 1.710174,-0.2177 0.03,-0.23634 -1.241112,-0.59247 -1.60149,-0.63826 -0.360386,-0.0458 -0.676841,0.10878 -0.706861,0.34511 -0.03,0.23638 0.237816,0.465 0.598177,0.51086 z"
         fill="#f4d242"
         id="path36-27-2"
         style="isolation:isolate;stroke-width:0.0847749" />
      <path
         id="path1123-5-8"
         style="font-size:7.20482px;line-height:1.25;font-family:'Bad Script';-inkscape-font-specification:'Bad Script, Normal';fill:#ff6600;stroke-width:0.180121"
         transform="matrix(1.1674137,0,0,1.1008671,35.506296,23.897333)"
         d="m 53.09375,72.601562 c -0.438356,0 -0.845866,0.112115 -1.208984,0.332032 -0.439028,0.267573 -0.689453,0.674941 -0.689454,1.152344 0,0.224422 0.02579,0.405443 0.103516,0.55664 0.07773,0.151197 0.243549,0.263672 0.414063,0.263672 0.06201,0 0.140191,-0.01559 0.205078,-0.07422 0.06489,-0.05863 0.08984,-0.14589 0.08984,-0.210937 0,-0.05965 -0.0099,-0.08572 -0.02148,-0.13086 -0.01149,-0.04465 -0.02861,-0.09783 -0.04883,-0.162109 v -0.002 c -0.03444,-0.116992 -0.04492,-0.199057 -0.04492,-0.207031 1e-6,-0.236033 0.08641,-0.396185 0.316406,-0.546875 0.236635,-0.153712 0.539399,-0.234375 0.923828,-0.234375 0.175042,0 0.300958,0.04807 0.416016,0.152343 0.14379,0.137359 0.234375,0.38075 0.234375,0.769532 0,0.361883 -0.170477,0.817904 -0.548828,1.359375 -0.290112,0.408044 -0.486889,0.702642 -0.597656,0.896484 a 0.19648557,0.19648557 0 0 0 -0.002,0.002 c -0.108947,0.195096 -0.19666,0.409288 -0.263672,0.642578 -0.06912,0.238091 -0.159248,0.68496 -0.279297,1.365235 a 0.19648557,0.19648557 0 0 0 -0.002,0.05078 c 0.007,0.07573 0.02784,0.155986 0.08789,0.224609 0.06005,0.06862 0.157664,0.105469 0.238282,0.105469 0.102661,0 0.187384,-0.04749 0.253906,-0.103516 a 0.19648557,0.19648557 0 0 0 0.0039,-0.0039 c 0.07576,-0.06778 0.12827,-0.168353 0.140625,-0.267578 v -0.002 c 0.101932,-0.754282 0.223783,-1.27458 0.337891,-1.523438 v -0.002 c 0.1287,-0.274849 0.301021,-0.55328 0.515625,-0.835937 l 0.002,-0.002 c 0.08713,-0.11072 0.168367,-0.21863 0.246094,-0.322266 v 0.0039 c 0.08282,-0.107175 0.156673,-0.214732 0.226562,-0.318359 0.07499,-0.111198 0.139681,-0.228528 0.19336,-0.353516 v -0.002 c 0.0565,-0.128721 0.103875,-0.268682 0.134765,-0.417969 0.03272,-0.158111 0.04492,-0.347754 0.04492,-0.578125 0,-0.242525 -0.0384,-0.470394 -0.115234,-0.679687 -0.21432,-0.569777 -0.690406,-0.896485 -1.306641,-0.896485 z m -0.671875,6.400391 c -0.144953,0 -0.275069,0.06779 -0.390625,0.166016 -0.121,0.102385 -0.207031,0.249258 -0.207031,0.40625 0,0.105796 -3.68e-4,0.186749 0.04883,0.285156 0.08605,0.172102 0.282693,0.271484 0.478515,0.271484 a 0.19648557,0.19648557 0 0 0 0.06055,-0.0098 c 0.168485,-0.05377 0.299697,-0.18613 0.388672,-0.355469 a 0.19648557,0.19648557 0 0 0 0.01367,-0.03516 c 0.03599,-0.120848 0.05859,-0.222743 0.05859,-0.320313 0,-0.109937 -0.04292,-0.232412 -0.134766,-0.308594 -0.09184,-0.07618 -0.204742,-0.09961 -0.316406,-0.09961 z" />
      <path
         id="path1123-9"
         style="font-size:7.20482px;line-height:1.25;font-family:'Bad Script';-inkscape-font-specification:'Bad Script, Normal';fill:#f50000;stroke-width:0.180121"
         transform="matrix(1.0898028,0,0,1.0898028,39.868942,24.547826)"
         d="m 53.09375,72.601562 c -0.438356,0 -0.845866,0.112115 -1.208984,0.332032 -0.439028,0.267573 -0.689453,0.674941 -0.689454,1.152344 0,0.224422 0.02579,0.405443 0.103516,0.55664 0.07773,0.151197 0.243549,0.263672 0.414063,0.263672 0.06201,0 0.140191,-0.01559 0.205078,-0.07422 0.06489,-0.05863 0.08984,-0.14589 0.08984,-0.210937 0,-0.05965 -0.0099,-0.08572 -0.02148,-0.13086 -0.01149,-0.04465 -0.02861,-0.09783 -0.04883,-0.162109 v -0.002 c -0.03444,-0.116992 -0.04492,-0.199057 -0.04492,-0.207031 1e-6,-0.236033 0.08641,-0.396185 0.316406,-0.546875 0.236635,-0.153712 0.539399,-0.234375 0.923828,-0.234375 0.175042,0 0.300958,0.04807 0.416016,0.152343 0.14379,0.137359 0.234375,0.38075 0.234375,0.769532 0,0.361883 -0.170477,0.817904 -0.548828,1.359375 -0.290112,0.408044 -0.486889,0.702642 -0.597656,0.896484 a 0.19648557,0.19648557 0 0 0 -0.002,0.002 c -0.108947,0.195096 -0.19666,0.409288 -0.263672,0.642578 -0.06912,0.238091 -0.159248,0.68496 -0.279297,1.365235 a 0.19648557,0.19648557 0 0 0 -0.002,0.05078 c 0.007,0.07573 0.02784,0.155986 0.08789,0.224609 0.06005,0.06862 0.157664,0.105469 0.238282,0.105469 0.102661,0 0.187384,-0.04749 0.253906,-0.103516 a 0.19648557,0.19648557 0 0 0 0.0039,-0.0039 c 0.07576,-0.06778 0.12827,-0.168353 0.140625,-0.267578 v -0.002 c 0.101932,-0.754282 0.223783,-1.27458 0.337891,-1.523438 v -0.002 c 0.1287,-0.274849 0.301021,-0.55328 0.515625,-0.835937 l 0.002,-0.002 c 0.08713,-0.11072 0.168367,-0.21863 0.246094,-0.322266 v 0.0039 c 0.08282,-0.107175 0.156673,-0.214732 0.226562,-0.318359 0.07499,-0.111198 0.139681,-0.228528 0.19336,-0.353516 v -0.002 c 0.0565,-0.128721 0.103875,-0.268682 0.134765,-0.417969 0.03272,-0.158111 0.04492,-0.347754 0.04492,-0.578125 0,-0.242525 -0.0384,-0.470394 -0.115234,-0.679687 -0.21432,-0.569777 -0.690406,-0.896485 -1.306641,-0.896485 z m -0.671875,6.400391 c -0.144953,0 -0.275069,0.06779 -0.390625,0.166016 -0.121,0.102385 -0.207031,0.249258 -0.207031,0.40625 0,0.105796 -3.68e-4,0.186749 0.04883,0.285156 0.08605,0.172102 0.282693,0.271484 0.478515,0.271484 a 0.19648557,0.19648557 0 0 0 0.06055,-0.0098 c 0.168485,-0.05377 0.299697,-0.18613 0.388672,-0.355469 a 0.19648557,0.19648557 0 0 0 0.01367,-0.03516 c 0.03599,-0.120848 0.05859,-0.222743 0.05859,-0.320313 0,-0.109937 -0.04292,-0.232412 -0.134766,-0.308594 -0.09184,-0.07618 -0.204742,-0.09961 -0.316406,-0.09961 z" />
    </g>
  </g>
</svg>
