<?xml version="1.0" encoding="UTF-8" standalone="no"?>
<svg
   width="512"
   height="512"
   viewBox="0 0 135.46667 135.46667"
   version="1.1"
   id="svg1762"
   inkscape:version="1.1 (1:1.1+202105261517+ce6663b3b7)"
   sodipodi:docname="logo.svg"
   inkscape:export-filename="/home/kk42id/Documents/SKRIPSI/logo-rekomendasiin.com/logo-512px.png"
   inkscape:export-xdpi="21.379999"
   inkscape:export-ydpi="21.379999"
   xmlns:inkscape="http://www.inkscape.org/namespaces/inkscape"
   xmlns:sodipodi="http://sodipodi.sourceforge.net/DTD/sodipodi-0.dtd"
   xmlns:xlink="http://www.w3.org/1999/xlink"
   xmlns="http://www.w3.org/2000/svg"
   xmlns:svg="http://www.w3.org/2000/svg"
   xmlns:rdf="http://www.w3.org/1999/02/22-rdf-syntax-ns#"
   xmlns:cc="http://creativecommons.org/ns#"
   xmlns:dc="http://purl.org/dc/elements/1.1/">
  <defs
     id="defs1756">
    <linearGradient
       inkscape:collect="always"
       id="linearGradient1086">
      <stop
         style="stop-color:#ff0000;stop-opacity:1"
         offset="0"
         id="stop1082" />
      <stop
         style="stop-color:#aa0000;stop-opacity:1"
         offset="1"
         id="stop1084" />
    </linearGradient>
    <radialGradient
       inkscape:collect="always"
       xlink:href="#linearGradient1094"
       id="radialGradient996"
       cx="52.503716"
       cy="75.937119"
       fx="52.503716"
       fy="75.937119"
       r="5.172317"
       gradientTransform="matrix(17.37901,-4.4857946,6.5117668,25.228095,-1198.6014,-1527.5051)"
       gradientUnits="userSpaceOnUse" />
    <linearGradient
       inkscape:collect="always"
       id="linearGradient1094">
      <stop
         style="stop-color:#faff00;stop-opacity:1"
         offset="0"
         id="stop1090" />
      <stop
         style="stop-color:#ff6e00;stop-opacity:1"
         offset="1"
         id="stop1092" />
    </linearGradient>
    <linearGradient
       inkscape:collect="always"
       xlink:href="#linearGradient1086"
       id="linearGradient172"
       x1="-400.17471"
       y1="-10.346175"
       x2="-168.49142"
       y2="227.18842"
       gradientUnits="userSpaceOnUse"
       gradientTransform="matrix(0.48962411,0,0,0.48962411,205.73899,15.203609)" />
  </defs>
  <sodipodi:namedview
     id="base"
     pagecolor="#ffffff"
     bordercolor="#666666"
     borderopacity="1.0"
     inkscape:pageopacity="0.0"
     inkscape:pageshadow="2"
     inkscape:zoom="0.7"
     inkscape:cx="187.85714"
     inkscape:cy="324.28571"
     inkscape:document-units="mm"
     inkscape:current-layer="layer1"
     inkscape:document-rotation="0"
     showgrid="false"
     units="px"
     inkscape:window-width="1920"
     inkscape:window-height="1080"
     inkscape:window-x="0"
     inkscape:window-y="0"
     inkscape:window-maximized="1"
     inkscape:pagecheckerboard="0"
     width="512px" />
  <metadata
     id="metadata1759">
    <rdf:RDF>
      <cc:Work
         rdf:about="">
        <dc:format>image/svg+xml</dc:format>
        <dc:type
           rdf:resource="http://purl.org/dc/dcmitype/StillImage" />
      </cc:Work>
    </rdf:RDF>
  </metadata>
  <g
     inkscape:label="Layer 1"
     inkscape:groupmode="layer"
     id="layer1">
    <rect
       style="fill:url(#linearGradient172);fill-opacity:1;fill-rule:evenodd;stroke-width:0.129546"
       id="rect54"
       width="135.46666"
       height="135.46666"
       x="3.5603841e-06"
       y="3.5603841e-06"
       ry="0"
       inkscape:export-filename="/home/kk42id/Documents/SKRIPSI/logo-rekomendasiin.com/rect54.png"
       inkscape:export-xdpi="96"
       inkscape:export-ydpi="96" />
    <g
       id="g479"
       transform="matrix(0.38108074,0,0,0.38108074,-11.479846,12.887067)"
       inkscape:export-filename="/home/kk42id/Documents/SKRIPSI/logo-rekomendasiin.com/rect54.png"
       inkscape:export-xdpi="96"
       inkscape:export-ydpi="96">
      <path
         d="m 272.12987,136.49651 c 0,-35.22677 -28.55699,-63.783681 -63.78372,-63.783681 -35.2278,-9.26e-4 -63.90558,28.780411 -63.78377,64.008141 0.0656,17.49251 7.16297,33.32458 18.62077,44.81197 8.91932,8.94238 15.4434,19.98575 18.74048,32.1782 l 5.14363,19.02161 h 41.81138 l 4.87127,-18.01629 c 3.36796,-12.45428 10.11365,-23.69342 19.31313,-32.73844 11.76858,-11.57181 19.06683,-27.67338 19.06683,-45.48151 z"
         fill="#f4d242"
         id="path20-7"
         style="isolation:isolate;fill:url(#radialGradient996);fill-opacity:1;stroke-width:0.959282" />
      <path
         d="m 218.00413,255.01017 h -20.38568 c -5.77578,0 -10.71705,-4.26505 -11.04619,-9.67637 l -1.72088,-20.88934 46.16925,-0.29488 -1.97027,21.18475 c -0.32911,5.41131 -5.27029,9.67621 -11.04623,9.67621 z"
         fill="#ffffff"
         id="path22-5"
         style="isolation:isolate;fill:#b8b8b8;fill-opacity:1;stroke-width:0.959282" />
      <path
         d="m 226.86983,233.25841 c -12.89654,0.55159 -25.84012,-0.10474 -38.73586,0.45987 -1.14563,0.0463 -1.06004,1.72198 0.0656,1.75941 12.90713,0.42849 25.848,-0.37061 38.755,0.0362 1.44859,0.0463 1.38433,-2.3224 -0.0777,-2.25912 z"
         fill="#a4a4a4"
         id="path24-3"
         style="isolation:isolate;fill:#ffffff;fill-opacity:1;stroke-width:0.959282" />
      <path
         d="m 226.86983,238.86062 c -12.89654,0.5516 -25.84012,-0.10473 -38.73586,0.45988 -1.14563,0.0463 -1.06004,1.72198 0.0656,1.75936 12.90713,0.42849 25.848,-0.3706 38.755,0.0363 1.44859,0.0463 1.38433,-2.32253 -0.0777,-2.25912 z"
         fill="#a4a4a4"
         id="path26-5"
         style="isolation:isolate;fill:#ffffff;fill-opacity:1;stroke-width:0.959282" />
      <path
         d="m 213.54641,40.27861 c 0,4.109436 -2.18519,18.886258 -4.88086,18.886258 -2.69654,0 -4.8817,-14.776822 -4.8817,-18.886258 0,-4.110588 2.18516,-7.443224 4.8817,-7.443224 2.69567,0 4.88086,3.332636 4.88086,7.443224 z"
         fill="#f4d242"
         id="path28-6"
         style="isolation:isolate;stroke-width:0.959282" />
      <path
         d="m 274.37171,62.9732 c -3.11775,2.679244 -12.90151,13.966213 -11.14497,16.011355 1.75739,2.045256 14.38921,-5.92745 17.50692,-8.605642 3.11772,-2.679236 4.22083,-6.508716 2.46344,-8.553041 -1.75639,-2.045256 -5.70872,-1.530985 -8.82539,1.147219 z"
         fill="#f4d242"
         id="path30-2"
         style="isolation:isolate;stroke-width:0.959282" />
      <path
         d="m 298.07752,128.91629 c -4.07798,0.51909 -19.0121,0.2125 -19.35165,-2.46258 -0.33958,-2.67542 14.04395,-6.70449 18.12092,-7.22236 4.07786,-0.51799 7.65879,1.22972 7.99846,3.90414 0.33958,2.67459 -2.68987,5.26269 -6.76773,5.7808 z"
         fill="#f4d242"
         id="path32-9"
         style="isolation:isolate;stroke-width:0.959282" />
      <path
         d="m 148.54152,58.065481 c 3.23567,2.534442 13.52206,13.365668 11.86056,15.487675 -1.66241,2.122929 -14.64342,-5.266405 -17.88001,-7.802019 -3.23565,-2.533281 -4.51161,-6.309117 -2.85012,-8.43089 1.66253,-2.123042 5.63389,-1.789095 8.86957,0.745496 z"
         fill="#f4d242"
         id="path34-1"
         style="isolation:isolate;stroke-width:0.959282" />
      <path
         d="m 117.65263,118.35259 c 4.07698,0.51667 19.01199,0.21137 19.35166,-2.46349 0.3395,-2.67437 -14.04393,-6.70427 -18.12183,-7.22238 -4.07801,-0.51798 -7.6589,1.23108 -7.99859,3.9052 -0.3395,2.67459 2.69088,5.26175 6.76876,5.78067 z"
         fill="#f4d242"
         id="path36-27"
         style="isolation:isolate;stroke-width:0.959282" />
      <path
         id="path1123-5"
         style="font-style:normal;font-variant:normal;font-weight:normal;font-stretch:normal;font-size:7.20482px;line-height:1.25;font-family:'Bad Script';-inkscape-font-specification:'Bad Script, Normal';font-variant-ligatures:normal;font-variant-caps:normal;font-variant-numeric:normal;font-variant-east-asian:normal;fill:#ff9955;fill-opacity:1;stroke:none;stroke-width:2.31059"
         d="m 212.88385,113.31835 c -5.79069,0 -11.1739,1.39662 -15.97069,4.13612 -5.79956,3.33316 -9.10768,8.40774 -9.10769,14.35474 0,2.79563 0.34069,5.0506 1.36745,6.93406 1.02681,1.88346 3.21728,3.28456 5.46977,3.28456 0.81915,0 1.85193,-0.1942 2.70908,-0.92456 0.8572,-0.73035 1.18679,-1.81735 1.18679,-2.62764 0,-0.74306 -0.13078,-1.06781 -0.28375,-1.63012 -0.15178,-0.5562 -0.37794,-1.21867 -0.64504,-2.01939 v -0.0249 c -0.45496,-1.45737 -0.5934,-2.47965 -0.5934,-2.57899 2e-5,-2.94026 1.14148,-4.93527 4.17973,-6.81241 3.12595,-1.91479 7.12546,-2.91961 12.20377,-2.91961 2.31231,0 3.97566,0.59881 5.49558,1.89774 1.89946,1.71108 3.09609,4.74299 3.09609,9.58605 0,4.50797 -2.252,10.18862 -7.25002,16.93372 -3.83238,5.083 -6.43181,8.75281 -7.89504,11.16749 a 2.5955758,2.447619 0 0 0 -0.0264,0.0249 c -1.43919,2.43031 -2.59788,5.09849 -3.48311,8.00459 -0.91308,2.96589 -2.10367,8.53254 -3.68951,17.00672 a 2.5955758,2.447619 0 0 0 -0.0264,0.63256 c 0.0925,0.94337 0.36776,1.94312 1.16102,2.79795 0.79326,0.8548 2.08275,1.31383 3.14771,1.31383 1.35615,0 2.47534,-0.59158 3.3541,-1.2895 a 2.5955758,2.447619 0 0 0 0.0515,-0.0486 c 1.00079,-0.84433 1.69445,-2.09717 1.85766,-3.33322 v -0.0249 c 1.34652,-9.39608 2.95617,-15.87743 4.46354,-18.97745 v -0.0249 c 1.70013,-3.42379 3.97649,-6.8922 6.81141,-10.41326 l 0.0264,-0.0249 c 1.15099,-1.37924 2.22413,-2.72347 3.2509,-4.01447 v 0.0486 c 1.09405,-1.33508 2.06965,-2.67492 2.99289,-3.9658 0.99062,-1.38519 1.84518,-2.84677 2.55428,-4.40374 v -0.0249 c 0.74637,-1.60347 1.37219,-3.34697 1.78025,-5.20663 0.43223,-1.96959 0.59339,-4.33197 0.59339,-7.2017 0,-3.02113 -0.50726,-5.8597 -1.52224,-8.46686 -2.83117,-7.0977 -9.12027,-11.1675 -17.26073,-11.1675 z m -8.87547,79.72962 c -1.91483,0 -3.63367,0.84446 -5.16016,2.06806 -1.59841,1.27541 -2.73488,3.105 -2.73488,5.06065 0,1.3179 -0.005,2.32633 0.64504,3.55219 1.13672,2.14387 3.73438,3.38187 6.32119,3.38187 a 2.5955758,2.447619 0 0 0 0.79986,-0.12208 c 2.22569,-0.66981 3.959,-2.31862 5.13436,-4.42807 a 2.5955758,2.447619 0 0 0 0.18058,-0.43799 c 0.47543,-1.5054 0.77398,-2.77471 0.77398,-3.99014 0,-1.36948 -0.56698,-2.89515 -1.78026,-3.84415 -1.21321,-0.94897 -2.70465,-1.24084 -4.17973,-1.24084 z" />
      <path
         id="path1123"
         style="font-style:normal;font-variant:normal;font-weight:normal;font-stretch:normal;font-size:7.20482px;line-height:1.25;font-family:'Bad Script';-inkscape-font-specification:'Bad Script, Normal';font-variant-ligatures:normal;font-variant-caps:normal;font-variant-numeric:normal;font-variant-east-asian:normal;fill:#f50000;fill-opacity:1;stroke:none;stroke-width:2.22121"
         d="m 215.62212,111.5894 c -5.40572,0 -10.43104,1.38258 -14.90894,4.09455 -5.414,3.29966 -8.50219,8.32323 -8.5022,14.21047 0,2.76752 0.31803,4.99984 1.27654,6.86437 0.95855,1.86453 3.00339,3.25154 5.10613,3.25154 0.7647,0 1.72881,-0.19225 2.52898,-0.91526 0.80021,-0.72301 1.10789,-1.79909 1.10789,-2.60123 0,-0.73559 -0.12208,-1.05708 -0.26489,-1.61374 -0.14169,-0.55062 -0.35281,-1.20642 -0.60216,-1.9991 v -0.0247 c -0.4247,-1.44272 -0.55394,-2.45473 -0.55394,-2.55306 1e-5,-2.91071 1.06559,-4.88567 3.90185,-6.74395 2.91813,-1.89555 6.65176,-2.89026 11.39246,-2.89026 2.15858,0 3.71135,0.59278 5.13022,1.87866 1.77319,1.69388 2.89026,4.69533 2.89026,9.48971 0,4.46266 -2.10229,10.08622 -6.76803,16.76353 -3.5776,5.03191 -6.00421,8.66483 -7.37017,11.05525 a 2.423019,2.4230192 0 0 0 -0.0247,0.0247 c -1.34352,2.40589 -2.42517,5.04726 -3.25155,7.92414 -0.85238,2.93609 -1.96381,8.44679 -3.44423,16.8358 a 2.423019,2.4230192 0 0 0 -0.0247,0.6262 c 0.0863,0.93389 0.34332,1.92359 1.08384,2.76984 0.74053,0.8462 1.94428,1.30062 2.93845,1.30062 1.26599,0 2.31078,-0.58564 3.13111,-1.27654 a 2.423019,2.4230192 0 0 0 0.0481,-0.0481 c 0.93425,-0.83585 1.5818,-2.0761 1.73416,-3.29972 v -0.0247 c 1.257,-9.30165 2.75964,-15.71786 4.1668,-18.78672 v -0.0247 c 1.5871,-3.38938 3.71212,-6.82293 6.35858,-10.3086 l 0.0247,-0.0247 c 1.07447,-1.36538 2.07627,-2.6961 3.03478,-3.97412 v 0.0481 c 1.02132,-1.32166 1.93206,-2.64803 2.79391,-3.92593 0.92477,-1.37127 1.72252,-2.81816 2.38448,-4.35949 v -0.0247 c 0.69675,-1.58736 1.28096,-3.31333 1.66189,-5.15431 0.4035,-1.94979 0.55395,-4.28843 0.55395,-7.12932 0,-2.99076 -0.47354,-5.8008 -1.42104,-8.38176 -2.64295,-7.02637 -8.51395,-11.05526 -16.11323,-11.05526 z m -8.28542,78.92829 c -1.78753,0 -3.3921,0.83597 -4.81711,2.04728 -1.49215,1.26259 -2.55306,3.07379 -2.55306,5.00979 0,1.30465 -0.005,2.30295 0.60216,3.51648 1.06115,2.12233 3.48611,3.34789 5.90095,3.34789 a 2.423019,2.4230192 0 0 0 0.74669,-0.12086 c 2.07772,-0.66308 3.6958,-2.29531 4.79302,-4.38357 a 2.423019,2.4230192 0 0 0 0.16857,-0.43358 c 0.44382,-1.49027 0.72252,-2.74682 0.72252,-3.95003 0,-1.35572 -0.52928,-2.86606 -1.6619,-3.80552 -1.13256,-0.93944 -2.52484,-1.22837 -3.90186,-1.22837 z" />
    </g>
  </g>
</svg>
