<?xml version="1.0" encoding="UTF-8" standalone="no"?>
<!-- Generator: Adobe Illustrator 19.0.0, SVG Export Plug-In . SVG Version: 6.00 Build 0)  -->

<svg
   version="1.1"
   id="Capa_1"
   x="0px"
   y="0px"
   viewBox="0 0 512 512"
   style="enable-background:new 0 0 512 512;"
   xml:space="preserve"
   sodipodi:docname="love.svg"
   inkscape:version="1.1 (1:1.1+202105261517+ce6663b3b7)"
   xmlns:inkscape="http://www.inkscape.org/namespaces/inkscape"
   xmlns:sodipodi="http://sodipodi.sourceforge.net/DTD/sodipodi-0.dtd"
   xmlns="http://www.w3.org/2000/svg"
   xmlns:svg="http://www.w3.org/2000/svg"><defs
   id="defs49" /><sodipodi:namedview
   id="namedview47"
   pagecolor="#ffffff"
   bordercolor="#666666"
   borderopacity="1.0"
   inkscape:pageshadow="2"
   inkscape:pageopacity="0.0"
   inkscape:pagecheckerboard="0"
   showgrid="false"
   inkscape:zoom="0.9765625"
   inkscape:cx="255.488"
   inkscape:cy="256"
   inkscape:window-width="1920"
   inkscape:window-height="958"
   inkscape:window-x="0"
   inkscape:window-y="28"
   inkscape:window-maximized="1"
   inkscape:current-layer="Capa_1" />
<path
   style="fill:#ff0000"
   d="M407.252,8.241H103.623c-50.527,0-91.487,40.961-91.487,91.487v199.144  c0,50.528,40.961,91.487,91.487,91.487h43.575c2.073,0,3.753,1.681,3.753,3.753v98.233c0,11.615,14.207,17.246,22.163,8.784  l103.067-109.59c0.71-0.755,1.699-1.182,2.735-1.182h128.335c50.528,0,91.487-40.961,91.487-91.487V99.729  C498.741,49.201,457.78,8.241,407.252,8.241z"
   id="path2" />
<path
   style="fill:#aa0000"
   d="M189.442,356.215c0-2.183-1.627-3.952-3.634-3.952h-42.185c-48.915,0-88.569-43.133-88.569-96.341  V46.215c0-9.003,1.139-17.716,3.263-25.983C30.731,35.988,12.135,65.686,12.135,99.729v199.144  c0,50.527,40.961,91.487,91.487,91.487h43.575c2.073,0,3.753,1.681,3.753,3.753v98.233c0,11.615,14.207,17.246,22.163,8.784  l16.325-17.359V356.215H189.442z"
   id="path4" />
<path
   style="fill:#EC5569;"
   d="M358.235,126.972L358.235,126.972c-23.228-23.228-60.888-23.228-84.116,0l-13.121,13.121  c-3.128,3.128-8.201,3.128-11.33,0l-12.911-12.911c-23.228-23.228-60.888-23.228-84.116,0l0,0  c-23.228,23.228-23.228,60.888,0,84.116l97.035,97.035c3.128,3.128,8.201,3.128,11.33,0l97.229-97.245  C381.463,187.86,381.463,150.2,358.235,126.972z"
   id="path6" />
<path
   style="fill:#FFF5F5;"
   d="M358.235,126.972L358.235,126.972c-23.228-23.228-60.888-23.228-84.116,0l-13.121,13.121  c-3.128,3.128-8.201,3.128-11.33,0l-12.911-12.911c-23.228-23.228-60.888-23.228-84.116,0l0,0  c-23.228,23.228-23.228,60.888,0,84.116l97.035,97.035c3.128,3.128,8.201,3.128,11.33,0l97.229-97.245  C381.463,187.86,381.463,150.2,358.235,126.972z"
   id="path8" />
<path
   style="fill:#DCE6EB;"
   d="M183.755,211.298c-23.228-23.228-23.228-60.888,0-84.116l0,0  c7.619-7.619,16.795-12.723,26.501-15.343c-19.884-5.369-42.006-0.266-57.614,15.343l0,0c-23.228,23.228-23.228,60.888,0,84.116  l97.035,97.035c3.128,3.128,8.201,3.128,11.33,0l9.89-9.892L183.755,211.298z"
   id="path10" />
<path
   d="M407.815,0h-303.63c-21.379,0-41.736,6.707-58.87,19.394c-3.341,2.474-4.043,7.188-1.57,10.529  c2.474,3.341,7.188,4.042,10.529,1.57c14.522-10.754,31.781-16.439,49.911-16.439h303.629c46.296,0,83.96,37.665,83.96,83.96  v199.144c0,46.296-37.665,83.96-83.96,83.96H279.48c-3.101,0-6.097,1.296-8.217,3.553l-103.068,109.59  c-2.225,2.364-4.805,1.693-5.81,1.296c-1.006-0.398-3.345-1.676-3.345-4.924V393.4c0-6.22-5.06-11.28-11.28-11.28h-43.575  c-46.296,0-83.961-37.665-83.961-83.96V99.014c0-17.032,5.069-33.429,14.66-47.417c2.35-3.429,1.477-8.113-1.951-10.464  c-3.427-2.351-8.114-1.476-10.464,1.951C11.153,59.59,5.171,78.93,5.171,99.014v199.144c0,54.596,44.418,99.014,99.015,99.014  h39.801v94.461c0,8.398,5.044,15.824,12.851,18.918c2.461,0.975,5.017,1.449,7.543,1.449c5.489,0,10.84-2.237,14.78-6.425  l101.95-108.402h126.704c54.596,0,99.014-44.418,99.014-99.014V99.014C506.829,44.418,462.412,0,407.815,0z"
   id="path12"
   style="fill:#ffd5d5" />
<path
   d="M331.001,227.529c-2.94,2.94-2.94,7.706,0.001,10.644c2.94,2.939,7.706,2.94,10.644-0.001l22.473-22.476  c26.124-26.125,26.124-68.636-0.001-94.761c-26.124-26.125-68.635-26.123-94.761,0l-13.119,13.12  c-0.035,0.035-0.144,0.143-0.344,0.143c-0.2,0-0.307-0.106-0.342-0.143l-12.911-12.91c-26.125-26.125-68.635-26.124-94.76,0  c-26.125,26.125-26.125,68.636,0,94.761l97.035,97.035c2.934,2.935,6.837,4.551,10.987,4.551c4.15,0,8.053-1.617,10.987-4.552  l53.325-53.334c2.94-2.94,2.94-7.706-0.001-10.644c-2.94-2.939-7.707-2.94-10.644,0.001l-53.325,53.334  c-0.035,0.035-0.143,0.142-0.342,0.142c-0.201,0-0.308-0.106-0.343-0.143l-97.035-97.035c-20.256-20.256-20.256-53.215,0-73.472  s53.215-20.255,73.471,0l12.91,12.91c2.934,2.936,6.837,4.552,10.987,4.552c4.151,0,8.052-1.616,10.988-4.551l13.12-13.12  c20.26-20.255,53.216-20.254,73.472,0c20.256,20.256,20.256,53.214,0,73.472L331.001,227.529z"
   id="path14"
   style="fill:#ffd5d5" />
<g
   id="g16">
</g>
<g
   id="g18">
</g>
<g
   id="g20">
</g>
<g
   id="g22">
</g>
<g
   id="g24">
</g>
<g
   id="g26">
</g>
<g
   id="g28">
</g>
<g
   id="g30">
</g>
<g
   id="g32">
</g>
<g
   id="g34">
</g>
<g
   id="g36">
</g>
<g
   id="g38">
</g>
<g
   id="g40">
</g>
<g
   id="g42">
</g>
<g
   id="g44">
</g>
</svg>
